<?xml version="1.0" encoding="UTF-8" standalone="no" ?>
<!DOCTYPE svg PUBLIC "-//W3C//DTD SVG 1.1//EN" "http://www.w3.org/Graphics/SVG/1.1/DTD/svg11.dtd">
<svg xmlns="http://www.w3.org/2000/svg" xmlns:xlink="http://www.w3.org/1999/xlink" version="1.1" width="1080" height="1080" viewBox="0 0 1080 1080" xml:space="preserve">
<desc>Created with Fabric.js 5.2.4</desc>
<defs>
</defs>
<g transform="matrix(1 0 0 1 540 540)" id="bc5f8160-fb41-487b-bc65-4e3bbfd35d65"  >
</g>
<g transform="matrix(1 0 0 1 540 540)" id="f09c6cf8-a5b9-4ed2-b036-a93974263153"  >
<rect style="stroke: none; stroke-width: 1; stroke-dasharray: none; stroke-linecap: butt; stroke-dashoffset: 0; stroke-linejoin: miter; stroke-miterlimit: 4; fill: rgb(255,255,255); fill-rule: nonzero; opacity: 1; visibility: hidden;" vector-effect="non-scaling-stroke"  x="-540" y="-540" rx="0" ry="0" width="1080" height="1080" />
</g>
<g transform="matrix(1 0 0 1 539.5 539.5)"  >
<path style="stroke: rgb(222,199,0); stroke-width: 0; stroke-dasharray: none; stroke-linecap: butt; stroke-dashoffset: 0; stroke-linejoin: miter; stroke-miterlimit: 4; fill: rgb(12,12,12); fill-rule: nonzero; opacity: 1;" vector-effect="non-scaling-stroke"  transform=" translate(-512, -512)" d="M 0 0 C 337.92 0 675.84 0 1024 0 C 1024 337.92 1024 675.84 1024 1024 C 686.08 1024 348.16 1024 0 1024 C 0 686.08 0 348.16 0 0 Z" stroke-linecap="round" />
</g>
<g transform="matrix(1 0 0 1 248.45 540)"  >
<path style="stroke: none; stroke-width: 1; stroke-dasharray: none; stroke-linecap: butt; stroke-dashoffset: 0; stroke-linejoin: miter; stroke-miterlimit: 4; fill: rgb(212,175,55); fill-rule: nonzero; opacity: 1;" vector-effect="non-scaling-stroke"  transform=" translate(44.33, -174.59)" d="M 0 0 C 1.59993556 8.39966167 1.98352006 17.65662197 0 26 C -1.2065625 26.15855469 -2.413125 26.31710937 -3.65625 26.48046875 C -15.76410961 27.91039 -15.76410961 27.91039 -26 34 C -26.5465625 34.46921875 -27.093125 34.9384375 -27.65625 35.421875 C -34.26522645 41.96605756 -36.13277323 51.21111341 -36.36962891 60.21972656 C -36.3907137 69.17118143 -35.66443722 78.07882296 -35 87 C -30.90590654 142.07332606 -30.90590654 142.07332606 -48.3125 162.4375 C -52.66705605 166.95637891 -57.47251734 170.98682353 -63 174 C -63.99 174 -64.98 174 -66 174 C -66 174.66 -66 175.32 -66 176 C -65.29617187 176.08378906 -64.59234375 176.16757812 -63.8671875 176.25390625 C -55.37984973 178.46246417 -48.00698921 186.22542945 -43.45703125 193.41015625 C -31.3375562 214.95227947 -33.48342928 236.77347182 -35.13909912 260.62921143 C -38.12736567 288.7040199 -38.12736567 288.7040199 -28 314 C -20.95241016 321.73515958 -9.96268358 322.36080127 0 323 C 1.27328905 326.90071089 1.14732046 330.82011576 1.125 334.875 C 1.12886719 335.56980469 1.13273437 336.26460937 1.13671875 336.98046875 C 1.12897598 341.09187906 0.79640249 344.9674223 0 349 C -38.30688088 349.70626784 -38.30688088 349.70626784 -53 336 C -65.92012288 323.18577977 -67.25361517 305.23354797 -67.33007812 288.04956055 C -67.29001284 277.20948685 -66.25474282 266.57098524 -65 255.8125 C -63.68486575 244.44137066 -62.57729295 233.21109484 -62.5 221.75 C -62.48195312 220.69272705 -62.46390625 219.6354541 -62.4453125 218.54614258 C -62.51507795 209.6183448 -64.84391433 201.33773824 -71.02734375 194.6640625 C -76.62789099 189.93964047 -83.24156086 186.70337566 -90 184 C -90 177.73 -90 171.46 -90 165 C -87.504375 163.845 -85.00875 162.69 -82.4375 161.5 C -72.86634501 156.82238951 -67.69558123 151.79710284 -63.82910156 141.75341797 C -62.44353871 137.15201107 -62.41328687 132.77619003 -62.5 128 C -62.50773437 126.91187012 -62.51546875 125.82374023 -62.5234375 124.70263672 C -62.73747137 113.78839548 -63.88751989 102.97663889 -65 92.125 C -70.64505047 36.96733456 -70.64505047 36.96733456 -57 18 C -56.236875 16.9275 -55.47375 15.855 -54.6875 14.75 C -40.39392157 0.12401277 -19.25069189 -0.27847237 0 0 Z" stroke-linecap="round" />
</g>
<g transform="matrix(1 0 0 1 830 539.61)"  >
<path style="stroke: rgb(0,0,0); stroke-width: 1; stroke-dasharray: none; stroke-linecap: butt; stroke-dashoffset: 0; stroke-linejoin: miter; stroke-miterlimit: 4; fill: rgb(212,175,55); fill-rule: nonzero; opacity: 1;" vector-effect="non-scaling-stroke"  transform=" translate(-45, -174.61)" d="M 0 0 C 40.52595426 1.08940737 40.52595426 1.08940737 54.3125 13.625 C 65.28144745 25.42560945 67.56463337 40.66374728 67.4375 56.125 C 67.43645264 56.84410553 67.43540527 57.56321106 67.43432617 58.30410767 C 67.39691848 71.01631423 66.34096197 83.55387512 65 96.1875 C 63.20743412 112.77457867 63.20743412 112.77457867 62.5 129.4375 C 62.48195313 130.29303467 62.46390625 131.14856934 62.4453125 132.0300293 C 62.53225777 140.94644786 65.84839244 148.69748228 71.94140625 155.18359375 C 77.27725102 159.89169207 83.6802016 162.8401008 90 166 C 90 171.94 90 177.88 90 184 C 86.0090625 185.9490625 86.0090625 185.9490625 81.9375 187.9375 C 72.60221482 192.7394094 67.34217362 197.69794363 63.64901733 207.72605896 C 62.54037702 211.61036619 62.58094465 215.37630794 62.65625 219.390625 C 62.66960388 220.74392914 62.66960388 220.74392914 62.68322754 222.12457275 C 62.90572115 233.7216206 64.23397232 245.22999779 65.5 256.75 C 71.53670867 312.03652788 71.53670867 312.03652788 57.6875 330.75 C 48.47488452 341.83636778 37.70583632 346.97815858 23.40380859 348.78613281 C 15.6257693 349.47814606 7.79320918 349.15381334 0 349 C 0 340.42 0 331.84 0 323 C 3.114375 322.62875 6.22875 322.2575 9.4375 321.875 C 18.15404515 320.6552715 24.85415515 319.19267068 30.5625 312.04296875 C 34.46810996 306.24003123 36.25125637 300.5649251 36.265625 293.546875 C 36.26949219 292.30099609 36.27335938 291.05511719 36.27734375 289.77148438 C 36.26910263 288.43098393 36.25996646 287.09048873 36.25 285.75 C 36.24822754 285.06526611 36.24645508 284.38053223 36.24462891 283.67504883 C 36.21615279 274.24178902 35.81925469 264.90205953 35 255.5 C 30.91771849 208.15858623 30.91771849 208.15858623 46.28076172 189.43945312 C 51.12569308 183.96842348 56.27067186 179.00672108 63 176 C 63.66 176 64.32 176 65 176 C 65 175.34 65 174.68 65 174 C 64.11183594 173.7421875 63.22367188 173.484375 62.30859375 173.21875 C 51.18327463 169.12063953 44.39037882 159.0489842 39.25 148.875 C 32.31447694 132.53188625 33.25271317 114.83951182 35 97.5625 C 35.95256615 87.89374194 36.28069896 78.25635652 36.35449219 68.54660034 C 36.36803168 66.94783229 36.38840242 65.34910571 36.41601562 63.7505188 C 36.5937349 52.60901129 35.87488859 43.11894246 27.9375 34.56640625 C 19.98797284 28.13946997 9.81151083 27.07926619 0 26 C 0 17.42 0 8.84 0 0 Z" stroke-linecap="round" />
</g>
<g transform="matrix(1 0 0 1 495 540.5)"  >
<path style="stroke: none; stroke-width: 1; stroke-dasharray: none; stroke-linecap: butt; stroke-dashoffset: 0; stroke-linejoin: miter; stroke-miterlimit: 4; fill: rgb(251,251,252); fill-rule: nonzero; opacity: 1;" vector-effect="non-scaling-stroke"  transform=" translate(-49, -56.5)" d="M 0 0 C 8.25 0 16.5 0 25 0 C 29.77829364 6.82613377 34.37561579 13.65076774 38.8125 20.6875 C 50.22506059 38.66678937 62.15943646 56.30082429 74 74 C 74 49.58 74 25.16 74 0 C 81.92 0 89.84 0 98 0 C 98 37.29 98 74.58 98 113 C 90.08 113 82.16 113 74 113 C 65.69452507 103.64761647 65.69452507 103.64761647 63.34765625 99.09375 C 60.41155534 93.6525192 57.13412524 88.54307076 53.69604492 83.40698242 C 46.79821288 73.09819352 40.15933354 62.6129169 33.55273438 52.11572266 C 33.02486328 51.27960449 32.49699219 50.44348633 31.953125 49.58203125 C 31.50098633 48.86249268 31.04884766 48.1429541 30.58300781 47.40161133 C 28.47753597 44.20735986 26.22366375 41.11312925 24 38 C 24 62.75 24 87.5 24 113 C 16.08 113 8.16 113 0 113 C 0 75.71 0 38.42 0 0 Z" stroke-linecap="round" />
</g>
<g transform="matrix(1 0 0 1 377.5 540.45)"  >
<path style="stroke: none; stroke-width: 1; stroke-dasharray: none; stroke-linecap: butt; stroke-dashoffset: 0; stroke-linejoin: miter; stroke-miterlimit: 4; fill: rgb(253,253,253); fill-rule: nonzero; opacity: 1;" vector-effect="non-scaling-stroke"  transform=" translate(-10.91, -56.56)" d="M 0 0 C 1.12591553 0.00523682 2.25183105 0.01047363 3.41186523 0.01586914 C 4.62680664 0.0190918 5.84174805 0.02231445 7.09350586 0.02563477 C 8.37290039 0.03401367 9.65229492 0.04239258 10.97045898 0.05102539 C 12.2537207 0.05553711 13.53698242 0.06004883 14.85913086 0.06469727 C 18.04211921 0.07652994 21.22501661 0.09301471 24.40795898 0.11352539 C 24.62663635 0.72024078 24.84531372 1.32695618 25.07061768 1.95205688 C 27.92950414 9.88216642 30.79255875 17.81076753 33.65795898 25.73852539 C 33.89026089 26.38132824 34.12256279 27.02413109 34.36190414 27.68641281 C 42.57932779 50.42171615 50.92017901 73.10875968 59.36010742 95.76245117 C 59.76837265 96.85981094 60.17663788 97.95717072 60.59727478 99.08778381 C 61.36169773 101.14192024 62.12754506 103.19552734 62.89503479 105.2485199 C 63.22841354 106.14442337 63.5617923 107.04032684 63.90527344 107.96337891 C 64.19723099 108.74552261 64.48918854 109.52766632 64.78999329 110.33351135 C 65.40795898 112.11352539 65.40795898 112.11352539 65.40795898 113.11352539 C 56.82795898 113.11352539 48.24795898 113.11352539 39.40795898 113.11352539 C 37.09795898 106.51352539 34.78795898 99.91352539 32.40795898 93.11352539 C 10.62795898 92.61852539 10.62795898 92.61852539 -11.59204102 92.11352539 C -12.25204102 95.08352539 -12.91204102 98.05352539 -13.59204102 101.11352539 C -14.91204102 105.07352539 -16.23204102 109.03352539 -17.59204102 113.11352539 C -26.17204102 113.11352539 -34.75204102 113.11352539 -43.59204102 113.11352539 C -38.354701 97.14034418 -32.74655942 81.33503473 -26.96704102 65.55102539 C -25.63869478 61.91440989 -24.31128265 58.27745447 -22.98402405 54.64044189 C -22.10424367 52.22964131 -21.22415006 49.81895501 -20.34373474 47.40838623 C -17.68796889 40.13308467 -15.04948519 32.85186157 -12.43188477 25.56274414 C -12.1237384 24.70529099 -11.81559204 23.84783783 -11.49810791 22.96440125 C -10.35688536 19.78763383 -9.21604122 16.61074675 -8.08074951 13.43185425 C -7.332917 11.33792895 -6.58191481 9.24516582 -5.83032227 7.15258789 C -5.4182251 5.99968262 -5.00612793 4.84677734 -4.58154297 3.65893555 C -3.21388884 0.14076088 -3.21388884 0.14076088 0 0 Z" stroke-linecap="round" />
</g>
<g transform="matrix(1 0 0 1 711.5 540.5)"  >
<path style="stroke: none; stroke-width: 1; stroke-dasharray: none; stroke-linecap: butt; stroke-dashoffset: 0; stroke-linejoin: miter; stroke-miterlimit: 4; fill: rgb(253,253,253); fill-rule: nonzero; opacity: 1;" vector-effect="non-scaling-stroke"  transform=" translate(-47.5, -56.5)" d="M 0 0 C 7.92 0 15.84 0 24 0 C 24 14.85 24 29.7 24 45 C 39.51 45 55.02 45 71 45 C 71 30.15 71 15.3 71 0 C 78.92 0 86.84 0 95 0 C 95 37.29 95 74.58 95 113 C 87.08 113 79.16 113 71 113 C 71 97.49 71 81.98 71 66 C 55.49 65.67 39.98 65.34 24 65 C 24 80.84 24 96.68 24 113 C 16.08 113 8.16 113 0 113 C 0 75.71 0 38.42 0 0 Z" stroke-linecap="round" />
</g>
<g transform="matrix(1 0 0 1 604.82 540.28)"  >
<path style="stroke: none; stroke-width: 1; stroke-dasharray: none; stroke-linecap: butt; stroke-dashoffset: 0; stroke-linejoin: miter; stroke-miterlimit: 4; fill: rgb(252,252,253); fill-rule: nonzero; opacity: 1;" vector-effect="non-scaling-stroke"  transform=" translate(27.18, -50.27)" d="M 0 0 C 6.12802294 4.96309185 9.52666723 10.58000168 12 18 C 12 20.64 12 23.28 12 26 C 3.75 26 -4.5 26 -13 26 C -13.99 23.36 -14.98 20.72 -16 18 C -21.04030092 13.0857066 -25.483794 12.66214433 -32.26171875 12.70703125 C -36.24597926 13.13330734 -38.03990655 14.35149533 -41 17 C -42.1977191 19.39543821 -42.3052625 21.13969954 -42.4375 23.8125 C -42.52837891 25.09060547 -42.52837891 25.09060547 -42.62109375 26.39453125 C -41.69637014 30.27371772 -39.24608763 31.98526076 -36 34 C -33.21195777 35.36898916 -30.35814081 36.44876818 -27.4375 37.5 C -26.25039429 37.94653931 -26.25039429 37.94653931 -25.03930664 38.40209961 C -21.45376982 39.74835284 -17.85426483 41.05237358 -14.25 42.34765625 C -3.12882075 46.42629628 6.46133732 51.68807043 12.3203125 62.41796875 C 16.0242225 70.77119236 15.89622061 77.97050329 13.0390625 86.58203125 C 9.42671822 94.98820083 2.60572976 101.65386314 -5.75 105.25 C -20.14099403 110.47517181 -35.0007541 110.57034327 -49.125 104.375 C -57.72913523 99.63284614 -65.08845116 92.53362968 -68 83 C -68.33 80.03 -68.66 77.06 -69 74 C -60.42 74 -51.84 74 -43 74 C -42.01 77.465 -42.01 77.465 -41 81 C -38.82615381 83.63460707 -36.0598642 85.4700679 -33 87 C -23.78942517 87.96751869 -23.78942517 87.96751869 -15.25 85.25 C -12.12222604 82.12222604 -11.15532933 80.46009572 -10.6875 76.0625 C -11.05099252 72.50027327 -11.91977452 70.89323936 -14 68 C -20.55372078 63.399681 -28.54602315 61.04692847 -36.0625 58.5 C -47.98730738 54.44178475 -59.54920493 50.00230461 -66.37890625 38.72265625 C -69.7896778 31.39009162 -70.36965792 23.28412405 -68.33984375 15.453125 C -64.5200064 5.8621914 -57.25160411 -0.72695695 -48 -5 C -32.4069808 -10.87788064 -13.79495319 -9.6225666 0 0 Z" stroke-linecap="round" />
</g>
<g transform="matrix(1 0 0 1 377 534)"  >
<path style="stroke: none; stroke-width: 1; stroke-dasharray: none; stroke-linecap: butt; stroke-dashoffset: 0; stroke-linejoin: miter; stroke-miterlimit: 4; fill: rgb(3,3,11); fill-rule: nonzero; opacity: 1;" vector-effect="non-scaling-stroke"  transform=" translate(0, -22)" d="M 0 0 C 1.65533834 2.48300751 2.5049122 4.13987807 3.42041016 6.88891602 C 3.68052887 7.66304337 3.94064758 8.43717072 4.20864868 9.23475647 C 4.48268524 10.0660759 4.7567218 10.89739532 5.0390625 11.75390625 C 5.32478119 12.61056381 5.61049988 13.46722137 5.90487671 14.34983826 C 6.50710402 16.15885872 7.10711841 17.96861717 7.70507812 19.77905273 C 8.62321596 22.55710196 9.54934057 25.33239315 10.4765625 28.10742188 C 11.06037187 29.86442523 11.64372102 31.62158159 12.2265625 33.37890625 C 12.50464752 34.21224991 12.78273254 35.04559357 13.06924438 35.90419006 C 15 41.76896654 15 41.76896654 15 44 C 5.1 44 -4.8 44 -15 44 C -13.34905957 38.8577685 -11.69606704 33.71628998 -10.0378418 28.57641602 C -9.47511088 26.83005985 -8.91356916 25.08332 -8.35327148 23.33618164 C -7.54468041 20.81553375 -6.73173043 18.29632644 -5.91796875 15.77734375 C -5.67096725 15.00414291 -5.42396576 14.23094208 -5.16947937 13.43431091 C -3.67705715 8.83161904 -1.97278099 4.41892708 0 0 Z" stroke-linecap="round" />
</g>
<g transform="matrix(1 0 0 1 849.59 680)"  >
<path style="stroke: none; stroke-width: 1; stroke-dasharray: none; stroke-linecap: butt; stroke-dashoffset: 0; stroke-linejoin: miter; stroke-miterlimit: 4; fill: rgb(5,22,23); fill-rule: nonzero; opacity: 1;" vector-effect="non-scaling-stroke"  transform=" translate(1.41, -8)" d="M 0 0 C 0.33 0 0.66 0 1 0 C 1.38647343 9.85507246 1.38647343 9.85507246 -1 14 C -1.99 14.66 -2.98 15.32 -4 16 C -2.68 10.72 -1.36 5.44 0 0 Z" stroke-linecap="round" />
</g>
<g transform="matrix(NaN NaN NaN NaN 0 0)"  >
<g style=""   >
</g>
</g>
<g transform="matrix(NaN NaN NaN NaN 0 0)"  >
<g style=""   >
</g>
</g>
</svg>