<?xml version="1.0" encoding="UTF-8"?>
<svg version="1.1" xmlns="http://www.w3.org/2000/svg" width="2160" height="2160">
<path d="M0 0 C1.20768312 -0.0024585 2.41536624 -0.004917 3.65964582 -0.00745 C5.02078103 -0.0051219 6.38191609 -0.0027036 7.74305099 -0.00020533 C9.18076954 -0.00119541 10.61848785 -0.0026242 12.05620557 -0.00445478 C16.05025906 -0.00824394 20.04428852 -0.0057203 24.03834141 -0.00226483 C28.38340722 0.00040148 32.72846936 -0.00270839 37.07353479 -0.00510167 C44.73264319 -0.00850907 52.3917445 -0.00815361 60.05085307 -0.00541813 C71.51684672 -0.00134141 82.98283455 -0.00299397 94.44882832 -0.00580077 C113.9854724 -0.01041266 133.52211388 -0.01024501 153.0587582 -0.00751989 C172.87021859 -0.00477323 192.68167728 -0.00418459 212.49313778 -0.00625723 C213.74222483 -0.0063864 214.99131188 -0.00651557 216.27825006 -0.00664866 C221.36518542 -0.0071819 226.45212078 -0.00773061 231.53905613 -0.00829894 C278.97423193 -0.01359486 326.40940614 -0.01394772 373.84458202 -0.01115149 C375.26582307 -0.01106785 376.68706413 -0.01098422 378.10830518 -0.01090059 C378.81267274 -0.01085913 379.51704031 -0.01081768 380.24275234 -0.01077497 C389.53097184 -0.01022848 398.81919134 -0.00969187 408.10741085 -0.00918167 C408.81734637 -0.00914251 409.5272819 -0.00910335 410.25873062 -0.009063 C443.12761552 -0.00726339 475.99650027 -0.00768967 508.8653852 -0.00861213 C512.44891014 -0.00871192 516.03243507 -0.00880742 519.61596001 -0.0089034 C530.41659858 -0.00919398 541.21723716 -0.00949092 552.01787574 -0.009801 C584.95542671 -0.01074563 617.89297769 -0.0113458 650.83052868 -0.0116493 C651.56397142 -0.01165617 652.29741417 -0.01166304 653.05308245 -0.01167012 C700.56759219 -0.012109 748.08210175 -0.01100739 795.59661144 -0.00879972 C796.73476702 -0.00874705 796.73476702 -0.00874705 797.89591564 -0.00869331 C823.31258534 -0.00751689 848.72925504 -0.00626085 874.14592473 -0.00499667 C951.01199534 -0.00117609 1027.87806534 0.00091743 1165.14918272 -0.00511201 C1190.55936282 -0.00637518 1215.96954291 -0.00762366 1241.37972301 -0.00879972 C1242.51755591 -0.00885259 1242.51755591 -0.00885259 1243.67837532 -0.00890653 C1291.16751883 -0.01111113 1338.65666222 -0.01209402 1386.14580578 -0.0116493 C1386.87900789 -0.01164255 1387.61221001 -0.01163579 1388.36763037 -0.01162883 C1421.28675654 -0.01132214 1454.2058827 -0.01068389 1487.12500885 -0.0097388 C1497.92094698 -0.00942924 1508.71688511 -0.00913491 1519.51282324 -0.00884575 C1523.09428324 -0.00874976 1526.67574324 -0.00865241 1530.25720323 -0.00855189 C1563.12777677 -0.00763221 1595.9983501 -0.00736849 1628.8689236 -0.00918167 C1629.93315458 -0.00924013 1629.93315458 -0.00924013 1631.01888518 -0.00929977 C1640.30193321 -0.0098116 1649.58498124 -0.01035423 1658.86802927 -0.01090059 C1659.9237519 -0.01096271 1659.9237519 -0.01096271 1661.00080225 -0.01102608 C1662.42075912 -0.01110965 1663.84071598 -0.01119328 1665.26067285 -0.01127698 C1713.26375302 -0.01409931 1761.26683139 -0.01323381 1809.26991147 -0.00787074 C1814.34100654 -0.00731835 1819.41210161 -0.00678165 1824.48319668 -0.00625723 C1826.35008435 -0.00606192 1826.35008435 -0.00606192 1828.25468692 -0.00586266 C1848.01898864 -0.00388475 1867.78328865 -0.00526936 1887.54759021 -0.00802623 C1906.94809417 -0.01066156 1926.34859523 -0.00976126 1945.74909882 -0.00501215 C1957.14510408 -0.0023294 1968.54110143 -0.00242361 1979.93710633 -0.00649374 C1987.48484347 -0.00891963 1995.03257438 -0.00778421 2002.58031076 -0.00362689 C2006.87225725 -0.00136589 2011.16418787 -0.00073021 2015.45613371 -0.00444341 C2019.34019655 -0.00777505 2023.22422952 -0.00661408 2027.10829041 -0.0016687 C2028.51080361 -0.00070286 2029.91331917 -0.00145349 2031.31583034 -0.0040277 C2033.20266276 -0.00725497 2035.08950318 -0.00384105 2036.97633445 0 C2038.02486229 0.00002797 2039.07339012 0.00005593 2040.15369153 0.00008475 C2042.48816723 0.12514383 2042.48816723 0.12514383 2043.48816723 1.12514383 C2043.58647555 2.96026359 2043.61326204 4.79922552 2043.61331106 6.63697661 C2043.61699881 8.44850129 2043.61699881 8.44850129 2043.62076106 10.29662243 C2043.61843295 11.65775764 2043.61601466 13.01889269 2043.61351639 14.3800276 C2043.61450647 15.81774615 2043.61593526 17.25546446 2043.61776584 18.69318218 C2043.621555 22.68723567 2043.61903136 26.68126512 2043.61557589 30.67531802 C2043.61290958 35.02038382 2043.61601945 39.36544597 2043.61841273 43.71051139 C2043.62182013 51.3696198 2043.62146467 59.02872111 2043.61872919 66.68782968 C2043.61465247 78.15382332 2043.61630503 89.61981116 2043.61911183 101.08580493 C2043.62372372 120.62244901 2043.62355607 140.15909049 2043.62083095 159.69573481 C2043.61808429 179.5071952 2043.61749565 199.31865389 2043.61956829 219.13011438 C2043.61969746 220.37920144 2043.61982663 221.62828849 2043.61995972 222.91522666 C2043.62049296 228.00216202 2043.62104167 233.08909738 2043.62161 238.17603274 C2043.62690592 285.61120854 2043.62725878 333.04638275 2043.62446254 380.48155863 C2043.62437891 381.90279968 2043.62429528 383.32404074 2043.62421165 384.74528179 C2043.62417019 385.44964935 2043.62412874 386.15401691 2043.62408603 386.87972895 C2043.62353954 396.16794845 2043.62300293 405.45616795 2043.62249273 414.74438746 C2043.62243399 415.80929074 2043.62243399 415.80929074 2043.62237406 416.89570723 C2043.62057445 449.76459213 2043.62100073 482.63347688 2043.62192319 515.50236181 C2043.62202298 519.08588674 2043.62211848 522.66941168 2043.62221446 526.25293662 C2043.62250504 537.05357519 2043.62280198 547.85421377 2043.62311206 558.65485234 C2043.62405669 591.59240332 2043.62465686 624.5299543 2043.62496036 657.46750528 C2043.62496723 658.20094803 2043.6249741 658.93439077 2043.62498118 659.69005906 C2043.62542006 707.20456879 2043.62431845 754.71907836 2043.62211078 802.23358805 C2043.62207567 802.99235843 2043.62204055 803.75112882 2043.62200437 804.53289224 C2043.62082795 829.94956195 2043.61957191 855.36623164 2043.61830773 880.78290134 C2043.61448715 957.64897195 2043.61239363 1034.51504194 2043.61842307 1171.78615933 C2043.61968623 1197.19633942 2043.62093472 1222.60651952 2043.62211078 1248.01669962 C2043.62214603 1248.77525488 2043.62218127 1249.53381015 2043.62221759 1250.31535193 C2043.62442219 1297.80449544 2043.62540508 1345.29363883 2043.62496036 1392.78278238 C2043.62495361 1393.5159845 2043.62494685 1394.24918662 2043.62493989 1395.00460698 C2043.6246332 1427.92373315 2043.62399495 1460.8428593 2043.62304986 1493.76198546 C2043.6227403 1504.55792359 2043.62244596 1515.35386172 2043.62215681 1526.14979985 C2043.62206082 1529.73125985 2043.62196347 1533.31271984 2043.62186295 1536.89417984 C2043.62094327 1569.76475337 2043.62067955 1602.6353267 2043.62249273 1635.50590021 C2043.62255119 1636.57013119 2043.62255119 1636.57013119 2043.62261083 1637.65586179 C2043.62312266 1646.93890982 2043.62366529 1656.22195785 2043.62421165 1665.50500588 C2043.62425306 1666.20882096 2043.62429448 1666.91263605 2043.62433714 1667.63777886 C2043.6244207 1669.05773573 2043.62450434 1670.47769259 2043.62458804 1671.89764946 C2043.62741037 1719.90072963 2043.62654487 1767.903808 2043.6211818 1815.90688808 C2043.62062941 1820.97798314 2043.62009271 1826.04907821 2043.61956829 1831.12017328 C2043.61943808 1832.36476506 2043.61930787 1833.60935685 2043.61917372 1834.89166353 C2043.61719581 1854.65596525 2043.61858042 1874.42026526 2043.62133729 1894.18456682 C2043.62397262 1913.58507078 2043.62307232 1932.98557184 2043.61832321 1952.38607543 C2043.61564046 1963.78208069 2043.61573467 1975.17807804 2043.6198048 1986.57408293 C2043.62223069 1994.12182007 2043.62109527 2001.66955099 2043.61693795 2009.21728736 C2043.61467695 2013.50923386 2043.61404127 2017.80116448 2043.61775447 2022.09311032 C2043.62108611 2025.97717315 2043.61992514 2029.86120613 2043.61497976 2033.74526701 C2043.61401392 2035.14778021 2043.61476455 2036.55029578 2043.61733876 2037.95280695 C2043.62056603 2039.83963937 2043.61715211 2041.72647979 2043.61331106 2043.61331106 C2043.61328309 2044.66183889 2043.61325512 2045.71036673 2043.61322631 2046.79066813 C2043.48816723 2049.12514383 2043.48816723 2049.12514383 2042.48816723 2050.12514383 C2040.65304747 2050.22345216 2038.81408554 2050.25023865 2036.97633445 2050.25028767 C2035.16480977 2050.25397542 2035.16480977 2050.25397542 2033.31668863 2050.25773767 C2031.95555342 2050.25540956 2030.59441837 2050.25299127 2029.23328346 2050.250493 C2027.79556491 2050.25148308 2026.3578466 2050.25291187 2024.92012888 2050.25474244 C2020.92607539 2050.25853161 2016.93204594 2050.25600797 2012.93799304 2050.25255249 C2008.59292724 2050.24988618 2004.24786509 2050.25299606 1999.90279967 2050.25538934 C1992.24369126 2050.25879674 1984.58458995 2050.25844128 1976.92548138 2050.2557058 C1965.45948773 2050.25162907 1953.9934999 2050.25328164 1942.52750613 2050.25608844 C1922.99086205 2050.26070032 1903.45422057 2050.26053268 1883.91757625 2050.25780756 C1864.10611586 2050.2550609 1844.29465717 2050.25447226 1824.48319668 2050.2565449 C1823.23410962 2050.25667407 1821.98502257 2050.25680324 1820.6980844 2050.25693633 C1815.61114904 2050.25746957 1810.52421368 2050.25801827 1805.43727832 2050.2585866 C1758.00210252 2050.26388252 1710.56692831 2050.26423539 1663.13175243 2050.26143915 C1661.71051138 2050.26135552 1660.28927032 2050.26127188 1658.86802927 2050.26118826 C1658.16366171 2050.2611468 1657.45929415 2050.26110535 1656.73358211 2050.26106263 C1647.44536261 2050.26051614 1638.15714311 2050.25997954 1628.8689236 2050.25946934 C1628.15898808 2050.25943018 1627.44905256 2050.25939102 1626.71760383 2050.25935067 C1593.84871893 2050.25755106 1560.97983418 2050.25797734 1528.11094925 2050.25889979 C1524.52742432 2050.25899959 1520.94389938 2050.25909509 1517.36037444 2050.25919107 C1506.55973587 2050.25948165 1495.75909729 2050.25977859 1484.95845872 2050.26008867 C1452.02090774 2050.26103329 1419.08335676 2050.26163347 1386.14580578 2050.26193697 C1385.04564166 2050.26194727 1385.04564166 2050.26194727 1383.923252 2050.26195778 C1336.40874227 2050.26239666 1288.8942327 2050.26129506 1241.37972301 2050.25908739 C1240.62095263 2050.25905227 1239.86218224 2050.25901715 1239.08041882 2050.25898097 C1213.66374911 2050.25780455 1188.24707942 2050.25654852 1162.83040972 2050.25528434 C1085.96433911 2050.25146376 1009.09826912 2050.24937024 871.82715173 2050.25539967 C846.41697164 2050.25666284 821.00679154 2050.25791133 795.59661144 2050.25908739 C794.45877855 2050.25914026 794.45877855 2050.25914026 793.29795913 2050.25919419 C745.80881562 2050.2613988 698.31967223 2050.26238169 650.83052868 2050.26193697 C650.09732656 2050.26193021 649.36412444 2050.26192346 648.60870408 2050.2619165 C615.68957791 2050.2616098 582.77045176 2050.26097156 549.8513256 2050.26002647 C539.05538747 2050.25971691 528.25944934 2050.25942257 517.46351121 2050.25913342 C513.88205121 2050.25903743 510.30059122 2050.25894007 506.71913122 2050.25883956 C473.84855769 2050.25791988 440.97798436 2050.25765615 408.10741085 2050.25946934 C407.04317987 2050.2595278 407.04317987 2050.2595278 405.95744927 2050.25958743 C396.67440124 2050.26009926 387.39135321 2050.2606419 378.10830518 2050.26118826 C377.05258256 2050.26125038 377.05258256 2050.26125038 375.9755322 2050.26131375 C374.55557533 2050.26139731 373.13561847 2050.26148094 371.7156616 2050.26156465 C323.71258143 2050.26438698 275.70950306 2050.26352148 227.70642298 2050.25815841 C222.63532792 2050.25760602 217.56423285 2050.25706932 212.49313778 2050.2565449 C211.248546 2050.25641469 210.00395421 2050.25628448 208.72164753 2050.25615033 C188.95734581 2050.25417242 169.1930458 2050.25555703 149.42874424 2050.2583139 C130.02824028 2050.26094922 110.62773922 2050.26004893 91.22723563 2050.25529981 C79.83123037 2050.25261706 68.43523302 2050.25271128 57.03922813 2050.25678141 C49.49149099 2050.2592073 41.94376007 2050.25807188 34.3960237 2050.25391456 C30.1040772 2050.25165355 25.81214658 2050.25101788 21.52020074 2050.25473107 C17.63613791 2050.25806272 13.75210493 2050.25690175 9.86804405 2050.25195637 C8.46553085 2050.25099053 7.06301528 2050.25174116 5.66050411 2050.25431537 C3.77367169 2050.25754264 1.88683127 2050.25412872 0 2050.25028767 C-1.04852783 2050.2502597 -2.09705567 2050.25023173 -3.17735707 2050.25020292 C-5.51183277 2050.12514383 -5.51183277 2050.12514383 -6.51183277 2049.12514383 C-6.6101411 2047.29002407 -6.63692759 2045.45106215 -6.63697661 2043.61331106 C-6.63943511 2042.40562794 -6.64189361 2041.19794482 -6.64442661 2039.95366524 C-6.6420985 2038.59253003 -6.63968021 2037.23139497 -6.63718194 2035.87026007 C-6.63817202 2034.43254152 -6.63960081 2032.99482321 -6.64143138 2031.55710549 C-6.64522055 2027.563052 -6.64269691 2023.56902254 -6.63924143 2019.57496965 C-6.63657512 2015.22990384 -6.639685 2010.8848417 -6.64207828 2006.53977627 C-6.64548568 1998.88066787 -6.64513022 1991.22156656 -6.64239474 1983.56245799 C-6.63831801 1972.09646434 -6.63997058 1960.63047651 -6.64277738 1949.16448274 C-6.64738926 1929.62783866 -6.64722162 1910.09119718 -6.6444965 1890.55455286 C-6.64174984 1870.74309246 -6.6411612 1850.93163378 -6.64323384 1831.12017328 C-6.64336301 1829.87108623 -6.64349218 1828.62199918 -6.64362527 1827.335061 C-6.64415851 1822.24812564 -6.64470721 1817.16119028 -6.64527554 1812.07425493 C-6.65057146 1764.63907913 -6.65092433 1717.20390492 -6.64812809 1669.76872904 C-6.64804446 1668.34748798 -6.64796082 1666.92624693 -6.6478772 1665.50500588 C-6.64783574 1664.80063832 -6.64779429 1664.09627075 -6.64775157 1663.37055872 C-6.64720508 1654.08233922 -6.64666848 1644.79411972 -6.64615828 1635.50590021 C-6.64611912 1634.79596469 -6.64607996 1634.08602916 -6.64603961 1633.35458044 C-6.64424 1600.48569554 -6.64466628 1567.61681079 -6.64558873 1534.74792586 C-6.64568853 1531.16440092 -6.64578403 1527.58087599 -6.64588001 1523.99735105 C-6.64617059 1513.19671247 -6.64646753 1502.3960739 -6.64677761 1491.59543532 C-6.64772223 1458.65788435 -6.64832241 1425.72033337 -6.64862591 1392.78278238 C-6.64863278 1392.04933964 -6.64863965 1391.31589689 -6.64864672 1390.56022861 C-6.6490856 1343.04571887 -6.647984 1295.53120931 -6.64577633 1248.01669962 C-6.64574121 1247.25792923 -6.64570609 1246.49915885 -6.64566991 1245.71739542 C-6.64449349 1220.30072572 -6.64323746 1194.88405602 -6.64197328 1169.46738633 C-6.6381527 1092.60131572 -6.63605918 1015.73524572 -6.64208861 878.46412834 C-6.64335178 853.05394824 -6.64460027 827.64376815 -6.64577633 802.23358805 C-6.64581158 801.47503278 -6.64584682 800.71647752 -6.64588313 799.93493574 C-6.64808774 752.44579223 -6.64907063 704.95664884 -6.64862591 657.46750528 C-6.64861915 656.73430317 -6.6486124 656.00110105 -6.64860544 655.24568069 C-6.64829874 622.32655452 -6.6476605 589.40742836 -6.64671541 556.48830221 C-6.64640585 545.69236408 -6.64611151 534.89642595 -6.64582236 524.10048782 C-6.64572637 520.51902782 -6.64562901 516.93756782 -6.6455285 513.35610783 C-6.64460882 480.48553429 -6.64434509 447.61496096 -6.64615828 414.74438746 C-6.64619725 414.03490014 -6.64623622 413.32541282 -6.64627637 412.59442588 C-6.6467882 403.31137785 -6.64733084 394.02832982 -6.6478772 384.74528179 C-6.64791861 384.04146671 -6.64796002 383.33765162 -6.64800269 382.61250881 C-6.64808625 381.19255194 -6.64816988 379.77259508 -6.64825359 378.35263821 C-6.65107592 330.34955804 -6.65021042 282.34647967 -6.64484735 234.34339959 C-6.64429496 229.27230452 -6.64375826 224.20120945 -6.64323384 219.13011438 C-6.64310363 217.8855226 -6.64297342 216.64093082 -6.64283927 215.35862414 C-6.64086136 195.59432242 -6.64224597 175.83002241 -6.64500284 156.06572085 C-6.64763816 136.66521689 -6.64673787 117.26471583 -6.64198875 97.86421224 C-6.639306 86.46820698 -6.63940022 75.07220963 -6.64347035 63.67620473 C-6.64589624 56.12846759 -6.64476082 48.58073668 -6.6406035 41.0330003 C-6.63834249 36.74105381 -6.63770682 32.44912319 -6.64142001 28.15717735 C-6.64475166 24.27311451 -6.64359069 20.38908153 -6.63864531 16.50502065 C-6.63767947 15.10250745 -6.6384301 13.69999189 -6.64100431 12.29748072 C-6.64423158 10.4106483 -6.64081766 8.52380788 -6.63697661 6.63697661 C-6.63694864 5.58844877 -6.63692067 4.53992094 -6.63689186 3.45961953 C-6.39823126 -0.99545353 -3.88716393 0.00010368 0 0 Z " fill="#0C0C0C" transform="translate(61.511832773685455,54.874856166541576)"/>
<path d="M0 0 C2.05347657 7.81717227 2.27965649 15.46885731 2.20581055 23.50463867 C2.18750033 25.56246345 2.18530203 27.61983631 2.18554688 29.67773438 C2.13794691 47.72410619 2.13794691 47.72410619 0 52 C-2.26220703 52.51489258 -2.26220703 52.51489258 -5.2578125 52.89453125 C-6.89858765 53.11665283 -6.89858765 53.11665283 -8.57250977 53.34326172 C-9.74483154 53.49811035 -10.91715332 53.65295898 -12.125 53.8125 C-26.21699898 55.83865016 -38.41970917 58.26149833 -50 67 C-50.59941406 67.34160156 -51.19882812 67.68320312 -51.81640625 68.03515625 C-58.29631047 71.84771734 -61.38829813 78.65596716 -65 85 C-65.51046875 85.7321875 -66.0209375 86.464375 -66.546875 87.21875 C-70.72384333 95.21337756 -71.55991346 103.93044069 -71.8125 112.8125 C-71.86603638 114.55539307 -71.86603638 114.55539307 -71.9206543 116.33349609 C-72.36700152 137.37636406 -70.60205429 158.42389855 -68.97265625 179.38671875 C-67.15585649 202.94889565 -65.59560112 226.42180574 -65.5 250.0625 C-65.48982849 251.06858307 -65.47965698 252.07466614 -65.46917725 253.11123657 C-65.26751262 277.59276564 -71.44995305 294.18278893 -87 313 C-87.47695313 313.58136719 -87.95390625 314.16273438 -88.4453125 314.76171875 C-95.841692 323.75458454 -103.3486121 332.08466214 -112.5625 339.25 C-113.09278809 339.6627417 -113.62307617 340.0754834 -114.16943359 340.50073242 C-124.95716255 348.68710609 -124.95716255 348.68710609 -132 348 C-132 349.32 -132 350.64 -132 352 C-131.34 351.92265625 -130.68 351.8453125 -130 351.765625 C-116.0069765 352.85882996 -103.04495749 366.049511 -94.3046875 376.03515625 C-84.89873431 387.27088489 -84.89873431 387.27088489 -84 395 C-83.34 395 -82.68 395 -82 395 C-75.02749207 409.00216755 -70.48439322 424.27399328 -71 440 C-70.34 440 -69.68 440 -69 440 C-68.10912205 446.83417448 -67.86691994 453.49158449 -67.90234375 460.37890625 C-67.9037587 461.43158188 -67.90517365 462.48425751 -67.90663147 463.5688324 C-67.91218704 466.90008499 -67.92473112 470.23126804 -67.9375 473.5625 C-67.94252075 475.8339834 -67.94708265 478.10546786 -67.95117188 480.37695312 C-67.96214188 485.9179921 -67.97883517 491.45899108 -68 497 C-68.66 497 -69.32 497 -70 497 C-69.98952637 497.7748877 -69.97905273 498.54977539 -69.96826172 499.34814453 C-69.66349667 525.29946715 -69.66349667 525.29946715 -71.48828125 535.5234375 C-72.56374826 542.83004543 -72.68025957 550.24508068 -72.92089844 557.61914062 C-72.98794744 559.63723274 -73.0739326 561.65468191 -73.1640625 563.671875 C-73.61395012 580.11322268 -68.23433212 594.88395762 -62.5625 610.0625 C-62.18029297 611.09955078 -61.79808594 612.13660156 -61.40429688 613.20507812 C-56.8040835 625.52177846 -53.51123192 632.48373298 -41.18652344 638.3359375 C-32.39180787 641.91422151 -24.0371737 643.29867996 -14.6875 644.3125 C-13.25307158 644.48086472 -11.81882417 644.65077905 -10.38476562 644.82226562 C-6.92507008 645.23264629 -3.46343388 645.62229317 0 646 C2.21967598 650.4459647 2.29096526 654.61992779 2.265625 659.484375 C2.26753845 660.29940491 2.2694519 661.11443481 2.27142334 661.9541626 C2.27278102 663.67549957 2.26911373 665.39684692 2.26074219 667.11816406 C2.25009203 669.72745329 2.26062281 672.33604534 2.2734375 674.9453125 C2.27211475 676.6250015 2.26954998 678.30469007 2.265625 679.984375 C2.27169769 681.13797516 2.27169769 681.13797516 2.27789307 682.31488037 C2.23177145 687.75767318 1.36457339 692.7356451 0 698 C-8.0854439 698.09345435 -16.17065511 698.16414138 -24.25650883 698.20724869 C-28.01275528 698.22795768 -31.76862721 698.25596136 -35.5246582 698.30175781 C-39.16220616 698.34582253 -42.79939827 698.36926184 -46.43719292 698.37950897 C-47.81202216 698.38679348 -49.18683612 698.40101122 -50.56151009 698.42292023 C-69.74056282 698.71590468 -83.63330375 693.34456845 -97.66796875 680.171875 C-99.71770558 678.26290737 -101.82477985 676.51110008 -104 674.75 C-114.21149107 665.75318226 -120.50050013 654.24062 -126 642 C-126.51820313 640.8965625 -127.03640625 639.793125 -127.5703125 638.65625 C-131.26193183 630.1338831 -131.87068331 622.1579729 -132 613 C-132.66 613 -133.32 613 -134 613 C-134.93349893 605.88073208 -135.16068992 598.9063738 -135.16796875 591.73046875 C-135.17296135 589.99438103 -135.17296135 589.99438103 -135.17805481 588.22322083 C-135.18309573 585.78512975 -135.18546402 583.34703183 -135.18530273 580.90893555 C-135.1874871 577.20935524 -135.20566771 573.51007448 -135.22460938 569.81054688 C-135.22754444 567.42968851 -135.22952848 565.04882874 -135.23046875 562.66796875 C-135.23765427 561.57695358 -135.24483978 560.48593842 -135.25224304 559.36186218 C-135.23355783 552.9778494 -134.66522591 546.95907525 -133.47746277 540.6839447 C-132.69300537 536.27430186 -132.4269631 531.83918852 -132.125 527.375 C-131.56378657 519.49073925 -130.87269284 511.64602792 -129.984375 503.79296875 C-127.76416791 483.78672598 -126.61067749 464.0129946 -126.625 443.875 C-126.62336853 442.78542999 -126.62173706 441.69585999 -126.62005615 440.57327271 C-126.62058625 437.46264177 -126.63816951 434.3527018 -126.6640625 431.2421875 C-126.66645935 430.32311111 -126.6688562 429.40403473 -126.67132568 428.45710754 C-126.8724359 414.61517421 -132.07597361 399.88425073 -142 390 C-147.44479351 385.38354242 -153.70388619 381.91940445 -159.875 378.375 C-160.80977173 377.83456055 -160.80977173 377.83456055 -161.76342773 377.28320312 C-167.72295316 373.94848078 -173.56315017 371.68202076 -180 369 C-180 355.8 -180 342.6 -180 329 C-171.09 325.04 -171.09 325.04 -162 321 C-159.03 319.02 -159.03 319.02 -156 317 C-154.85724609 316.27876953 -154.85724609 316.27876953 -153.69140625 315.54296875 C-138.76222363 306.03759927 -132.21989354 293.41288672 -127 277 C-126.67 276.01 -126.34 275.02 -126 274 C-125.78752269 269.81366137 -125.81421823 265.62349378 -125.81469727 261.43237305 C-125.81261181 259.42036858 -125.79445616 257.40839959 -125.77539062 255.39648438 C-125.66853249 232.48885743 -127.84280998 209.63243471 -130.1640625 186.8671875 C-130.26256941 185.89725294 -130.36107632 184.92731838 -130.46256828 183.92799187 C-131.38064778 174.89791581 -132.30550579 165.86858919 -133.26464844 156.84277344 C-135.44641217 136.24460225 -137.40771322 115.73605835 -137.5234375 95.0078125 C-137.53318226 94.24187649 -137.54292702 93.47594048 -137.55296707 92.68679428 C-137.65576712 82.15452687 -136.2112111 73.05921687 -133 63 C-132.34 63 -131.68 63 -131 63 C-130.773125 62.17628906 -130.54625 61.35257813 -130.3125 60.50390625 C-128.71291202 56.23357764 -126.50561776 52.72777406 -124 48.9375 C-123.51160645 48.1937915 -123.02321289 47.45008301 -122.52001953 46.68383789 C-115.71465363 36.43403833 -108.78807112 26.64634347 -99 19 C-98.42121094 18.54753906 -97.84242188 18.09507812 -97.24609375 17.62890625 C-94.14832089 15.38515598 -92.9778679 15 -89 15 C-89 14.34 -89 13.68 -89 13 C-60.65197677 -0.06232443 -30.64962908 -0.55762994 0 0 Z " fill="#D1AD36" transform="translate(586,731)"/>
<path d="M0 0 C40.36453217 0.82376596 40.36453217 0.82376596 55 1.9375 C56.01626465 2.01210449 57.0325293 2.08670898 58.07958984 2.16357422 C80.07719028 4.00140552 97.05106685 15.61870262 111.4765625 31.7734375 C147.67100842 77.17196933 132.53871912 150.23126241 127.12060547 203.35131836 C120.03242309 256.1113103 120.03242309 256.1113103 138 304 C138.44988281 304.61617187 138.89976562 305.23234375 139.36328125 305.8671875 C148.9943813 318.19726838 164.56432052 324.87253588 178 332 C178 343.55 178 355.1 178 367 C167.625 372.0625 167.625 372.0625 164.42041016 373.60961914 C150.96936593 380.25776468 137.59193802 389.01218986 131.0078125 402.90625 C130.35613963 404.26011302 129.66530405 405.59610081 128.9296875 406.90625 C111.32150615 438.73140741 128.07328833 499.30333064 131.86668301 534.23447037 C135.08670919 563.88727441 135.08670919 563.88727441 136.2265625 578.5546875 C136.30427383 579.54882156 136.38198517 580.54295563 136.46205139 581.56721497 C137.54954892 596.44375116 138.63693592 611.6199785 134 626 C133.67 626 133.34 626 133 626 C133 621.71 133 617.42 133 613 C132.34 613 131.68 613 131 613 C130.91363281 613.58523438 130.82726563 614.17046875 130.73828125 614.7734375 C129.56822342 621.92259817 127.74386355 628.78339405 125.67700195 635.71630859 C124.53347876 639.64367214 123.92260095 642.88237034 124 647 C122.71340837 648.37849103 121.37086915 649.70529025 120 651 C119.20529297 652.51980469 119.20529297 652.51980469 118.39453125 654.0703125 C115.57391782 659.1233111 111.52830446 662.96189037 107.4375 667 C106.63119141 667.79946045 105.82488281 668.5989209 104.99414062 669.42260742 C99.37417441 674.89215955 94.01324292 679.41419677 87 683 C85.83210938 683.65935547 85.83210938 683.65935547 84.640625 684.33203125 C77.51003356 688.1886093 69.82399363 690.91898891 62 693 C61.01942627 693.2669165 60.03885254 693.53383301 59.02856445 693.80883789 C46.93416671 696.6782217 34.93146465 696.33329045 22.5625 696.1875 C15.116875 696.125625 7.67125 696.06375 0 696 C0 679.5 0 663 0 646 C6.04706834 644.90053303 11.99653754 643.82954019 18.06298828 642.96142578 C35.73069439 640.39055999 50.24350634 636.18178431 62 622 C63.99995269 618.7757772 65.58234225 615.51460985 67 612 C67.33 611.24332031 67.66 610.48664062 68 609.70703125 C71.00209258 601.58027281 71.33265298 594.16730813 71.37109375 585.55859375 C71.38182237 584.21839217 71.39277913 582.87819239 71.40394592 581.53799438 C71.42904421 577.9245935 71.43631728 574.31137648 71.43685913 570.69789505 C71.43750332 568.42577256 71.44207489 566.15367859 71.44677734 563.88156128 C71.47263001 541.82478949 70.47437053 520.02686193 68.5 498.0625 C66.83529825 479.49848343 65.47539036 461.08409846 65.4375 442.4375 C65.42928223 441.52646515 65.42106445 440.6154303 65.41259766 439.67678833 C65.20852368 409.68584169 80.14247205 389.93386583 100.375 369.0625 C105.36433637 364.07316363 110.61079336 359.8541464 116.5625 356.0625 C117.54452393 355.43323608 117.54452393 355.43323608 118.54638672 354.79125977 C122.51269162 352.42384278 125.39251411 351.53854148 130 352 C130 350.02 130 348.04 130 346 C129.31035156 345.89558594 128.62070313 345.79117187 127.91015625 345.68359375 C109.30794952 341.31394787 95.50158895 325.93816005 85.75 310.4375 C84.48630299 308.29970427 83.2350224 306.15448842 82 304 C81.30777344 302.83984375 81.30777344 302.83984375 80.6015625 301.65625 C77.58810139 296.20514838 75.7136133 290.42586993 73.875 284.5 C73.63313965 283.7361499 73.3912793 282.9722998 73.14208984 282.18530273 C68.66467652 267.07595077 67.48689129 251.99031483 67.625 236.3125 C67.62799103 235.41757843 67.63098206 234.52265686 67.63406372 233.60061646 C67.70167476 216.11478449 68.95833808 198.79763961 70.46620178 181.38717651 C71.36360621 170.93255397 71.82351164 160.49079662 72 150 C72.0133136 149.22986572 72.0266272 148.45973145 72.04034424 147.66625977 C72.13110559 142.19325855 72.19263307 136.72061035 72.22915649 131.24697876 C72.24281519 129.40593434 72.26102051 127.56491677 72.28427124 125.72396851 C72.4938912 107.70886089 71.43670683 88.90237556 60 74 C59.65195313 73.4740625 59.30390625 72.948125 58.9453125 72.40625 C49.86805035 60.00253775 34.13314247 56.06068053 20 53 C13.4 52.01 6.8 51.02 0 50 C0 33.5 0 17 0 0 Z " fill="#D3AE36" transform="translate(1571,731)"/>
<path d="M0 0 C16.5 0 33 0 50 0 C54.1414887 5.32477119 58.11072622 10.44581176 61.75 16.0703125 C62.16556152 16.70550812 62.58112305 17.34070374 63.00927734 17.99514771 C64.34322896 20.03603779 65.67167803 22.08044242 67 24.125 C67.934548 25.55719318 68.86944797 26.98915674 69.8046875 28.42089844 C72.11752615 31.96333232 74.42606769 35.5085424 76.73339844 39.05456543 C78.56922752 41.87430406 80.40950866 44.69111461 82.25 47.5078125 C86.78192876 54.44590364 91.30665803 61.3886174 95.81616211 68.34130859 C103.40133151 80.03143054 111.0387247 91.68616355 118.71166992 103.31884766 C120.56578414 106.12997928 122.41870242 108.94189642 124.27148438 111.75390625 C125.49472113 113.6094215 126.71802613 115.46489177 127.94140625 117.3203125 C128.47302872 118.12711456 129.00465118 118.93391663 129.55238342 119.76516724 C135.33646716 128.53160907 141.17391865 137.26087797 147 146 C147.33 97.82 147.66 49.64 148 0 C163.84 0 179.68 0 196 0 C196 74.58 196 149.16 196 226 C179.83 226 163.66 226 147 226 C137.83484064 215.30731408 130.17330851 206.09627374 123.625 194 C117.47942798 182.6620418 110.29042487 172.00262172 103.16503906 161.26757812 C99.81659751 156.21395367 96.49953376 151.14003582 93.1875 146.0625 C92.56987793 145.11616699 91.95225586 144.16983398 91.31591797 143.19482422 C85.97990433 135.00231488 80.75498694 126.74242976 75.55078125 118.46582031 C72.68601027 113.91069013 69.81534034 109.3593852 66.9375 104.8125 C66.40825928 103.97066162 65.87901855 103.12882324 65.33374023 102.26147461 C60.10171528 94.00590575 54.55213746 86.07583631 49 78 C48.67 126.84 48.34 175.68 48 226 C32.16 226 16.32 226 0 226 C0 151.42 0 76.84 0 0 Z " fill="#FAFAFB" transform="translate(892,968)"/>
<path d="M0 0 C1.08089401 0.00022659 2.16178802 0.00045319 3.2754364 0.00068665 C5.02398674 0.02391243 5.02398674 0.02391243 6.80786133 0.04760742 C8.00220291 0.05185226 9.19654449 0.05609711 10.42707825 0.06047058 C14.24824402 0.07728658 18.06888574 0.11494524 21.88989258 0.15307617 C24.4777756 0.16811918 27.06566687 0.18180825 29.65356445 0.1940918 C36.00335316 0.22719972 42.35283543 0.27742856 48.70239258 0.34057617 C53.15985033 11.61832985 57.40695026 22.94802432 61.43862915 34.384552 C67.81255503 52.44659854 74.38058796 70.43526205 81.01489258 88.40307617 C81.4612204 89.61198517 81.90754822 90.82089417 82.36740112 92.06643677 C84.16981896 96.94757781 85.97268505 101.82855285 87.77632141 106.70924377 C92.1628374 118.58073366 96.52837796 130.45988274 100.88989258 142.34057617 C101.61691971 144.32040256 102.34397039 146.30022031 103.07104492 148.2800293 C104.89768536 153.25412904 106.72403645 158.22833497 108.55029297 163.20257568 C111.84575227 172.1784948 115.14154983 181.15428962 118.43789673 190.12988281 C119.61051542 193.32307829 120.78280637 196.51639394 121.95507812 199.7097168 C122.67161485 201.66089455 123.38816677 203.61206672 124.10473633 205.56323242 C124.42577332 206.4380275 124.7468103 207.31282257 125.07757568 208.21412659 C125.38036438 209.03839645 125.68315308 209.86266632 125.99511719 210.71191406 C126.28023163 211.49059845 126.56534607 212.26928284 126.85910034 213.07156372 C127.42411133 214.59181602 128.00185147 216.10739436 128.59182739 217.61813354 C130.70239258 223.0397611 130.70239258 223.0397611 130.70239258 226.34057617 C113.54239258 226.34057617 96.38239258 226.34057617 78.70239258 226.34057617 C75.45104378 218.21220417 72.39272609 210.08034798 69.45239258 201.84057617 C68.98894395 200.55408432 68.52540284 199.26762578 68.06176758 197.98120117 C67.62864258 196.76948242 67.19551758 195.55776367 66.74926758 194.30932617 C66.15903809 192.6609375 66.15903809 192.6609375 65.55688477 190.97924805 C64.70239258 188.34057617 64.70239258 188.34057617 64.70239258 186.34057617 C63.32132324 186.3484314 63.32132324 186.3484314 61.91235352 186.35644531 C42.16968926 186.45222463 22.44099302 186.33603413 2.70239258 185.90307617 C1.74296753 185.88342804 0.78354248 185.86377991 -0.20495605 185.84353638 C-2.94431445 185.78635617 -5.68344534 185.72283899 -8.42260742 185.65698242 C-9.23356873 185.64026489 -10.04453003 185.62354736 -10.88006592 185.60632324 C-15.10995214 185.49521424 -19.13067195 185.15890306 -23.29760742 184.34057617 C-23.39557617 185.05600586 -23.49354492 185.77143555 -23.59448242 186.50854492 C-25.68542201 200.44213372 -30.59110546 213.00548729 -35.29760742 226.34057617 C-52.45760742 226.34057617 -69.61760742 226.34057617 -87.29760742 226.34057617 C-85.41094757 219.42282339 -83.4986795 212.66829315 -81.18041992 205.90698242 C-80.88763153 205.04521393 -80.59484314 204.18344543 -80.29318237 203.29556274 C-79.34043323 200.49664505 -78.38205905 197.69970286 -77.42260742 194.90307617 C-76.92108154 193.43724594 -76.92108154 193.43724594 -76.40942383 191.94180298 C-70.2576893 173.97135112 -63.88966364 156.08841183 -57.3626709 138.25134277 C-54.04287873 129.17851249 -50.72745687 120.10408164 -47.41158581 111.02981758 C-46.1684515 107.62784967 -44.92508411 104.22596736 -43.68118286 100.82427979 C-35.83920112 79.37704721 -28.0833861 57.90067567 -20.41235352 36.39160156 C-18.69103203 31.5662278 -16.96273889 26.74342785 -15.22650146 21.92340088 C-14.61645864 20.22715395 -14.00883663 18.53003406 -13.40386963 16.83197021 C-12.59670417 14.57005324 -11.77895717 12.31227459 -10.95776367 10.05541992 C-10.28886108 8.19904907 -10.28886108 8.19904907 -9.60644531 6.30517578 C-7.34436883 1.1814312 -5.61263524 -0.0392492 0 0 Z " fill="#FBFBFB" transform="translate(733.297607421875,967.659423828125)"/>
<path d="M0 0 C15.84 0 31.68 0 48 0 C48 29.7 48 59.4 48 90 C79.02 90 110.04 90 142 90 C142 60.3 142 30.6 142 0 C157.84 0 173.68 0 190 0 C190 74.58 190 149.16 190 226 C174.16 226 158.32 226 142 226 C142 194.98 142 163.96 142 132 C132.1 132 122.2 132 112 132 C104.86137146 131.89609305 97.72698157 131.78951851 90.59008789 131.62768555 C87.63891707 131.56140894 84.68765686 131.50213922 81.73632812 131.44335938 C79.78644948 131.40145154 77.83657928 131.35914868 75.88671875 131.31640625 C75.04050461 131.29969376 74.19429047 131.28298126 73.32243347 131.26576233 C64.85564541 131.06540658 56.4744105 130.49849474 48 130 C48 161.68 48 193.36 48 226 C32.16 226 16.32 226 0 226 C0 151.42 0 76.84 0 0 Z " fill="#FCFCFC" transform="translate(1328,968)"/>
<path d="M0 0 C17.96538872 -0.61449492 32.99539649 2.48379584 49.40380859 9.76123047 C50.13083984 10.0815625 50.85787109 10.40189453 51.60693359 10.73193359 C53.37341964 11.51058205 55.13874021 12.29187372 56.90380859 13.07373047 C56.90380859 13.73373047 56.90380859 14.39373047 56.90380859 15.07373047 C57.60892578 15.13173828 58.31404297 15.18974609 59.04052734 15.24951172 C62.82782318 16.33971557 65.02780758 18.51454807 67.71630859 21.26123047 C68.23966797 21.79151855 68.76302734 22.32180664 69.30224609 22.86816406 C74.76009816 28.62941639 78.41156107 34.99689234 81.90380859 42.07373047 C82.35755859 42.90259766 82.81130859 43.73146484 83.27880859 44.58544922 C87.39486468 53.00335558 85.90380859 58.67779643 85.90380859 69.07373047 C69.40380859 69.07373047 52.90380859 69.07373047 35.90380859 69.07373047 C30.90380859 57.07373047 30.90380859 57.07373047 29.90380859 52.07373047 C27.42744848 50.69906422 27.42744848 50.69906422 24.90380859 50.07373047 C24.90380859 49.41373047 24.90380859 48.75373047 24.90380859 48.07373047 C23.91380859 48.07373047 22.92380859 48.07373047 21.90380859 48.07373047 C21.90380859 47.41373047 21.90380859 46.75373047 21.90380859 46.07373047 C15.27703441 44.38838607 9.16957595 43.70861934 2.34130859 43.69873047 C1.00036133 43.66199219 1.00036133 43.66199219 -0.36767578 43.62451172 C-7.07772281 43.59506016 -12.66934312 44.8168307 -17.65673828 49.55688477 C-21.86127882 54.37943312 -22.29140115 58.14515441 -22.40869141 64.38623047 C-22.44607422 65.68173828 -22.48345703 66.97724609 -22.52197266 68.31201172 C-21.89554345 73.84642753 -19.59055319 76.85107083 -15.34619141 80.32373047 C-14.23244141 81.18998047 -14.23244141 81.18998047 -13.09619141 82.07373047 C-13.09619141 82.73373047 -13.09619141 83.39373047 -13.09619141 84.07373047 C-12.43619141 84.15623047 -11.77619141 84.23873047 -11.09619141 84.32373047 C-7.78404562 85.15176691 -5.13522346 86.47730021 -2.11572266 88.03466797 C2.8487265 90.58891067 7.74910056 92.3587876 13.09130859 93.94873047 C18.62825102 95.6098132 23.88634721 97.63330746 29.19287109 99.91748047 C31.47599531 100.89126255 33.7595633 101.78832309 36.09130859 102.63623047 C40.45646376 104.24159745 44.6688137 106.15586241 48.90380859 108.07373047 C50.59077956 108.82491967 52.27826351 109.57495812 53.96630859 110.32373047 C55.27880859 110.9070638 56.59130859 111.49039714 57.90380859 112.07373047 C57.90380859 112.73373047 57.90380859 113.39373047 57.90380859 114.07373047 C58.89380859 114.07373047 59.88380859 114.07373047 60.90380859 114.07373047 C60.90380859 114.73373047 60.90380859 115.39373047 60.90380859 116.07373047 C61.89380859 116.07373047 62.88380859 116.07373047 63.90380859 116.07373047 C63.90380859 116.73373047 63.90380859 117.39373047 63.90380859 118.07373047 C64.89380859 118.35216797 64.89380859 118.35216797 65.90380859 118.63623047 C78.28157344 124.56724279 85.56188991 137.79062301 90.02880859 150.19873047 C94.76342279 165.75531998 92.4508587 182.29213027 85.27880859 196.63623047 C75.1652676 214.00623712 59.77584476 225.91150935 40.46630859 231.32373047 C37.95155782 231.93275185 35.4307676 232.51753208 32.90380859 233.07373047 C31.90220703 233.30060547 30.90060547 233.52748047 29.86865234 233.76123047 C6.28419216 238.23575256 -19.80284525 235.36055161 -41.09619141 224.07373047 C-41.09619141 223.41373047 -41.09619141 222.75373047 -41.09619141 222.07373047 C-42.08619141 222.07373047 -43.07619141 222.07373047 -44.09619141 222.07373047 C-44.09619141 221.41373047 -44.09619141 220.75373047 -44.09619141 220.07373047 C-44.65951172 219.98865234 -45.22283203 219.90357422 -45.80322266 219.81591797 C-56.29082544 216.42129356 -65.65791866 202.2398519 -70.53369141 192.94873047 C-74.9076853 183.53618559 -75.2750291 175.74884045 -76.09619141 165.07373047 C-58.93619141 165.07373047 -41.77619141 165.07373047 -24.09619141 165.07373047 C-21.62119141 172.00373047 -21.62119141 172.00373047 -19.09619141 179.07373047 C-15.29501233 183.03984852 -15.29501233 183.03984852 -12.67041016 184.83935547 C-12.15091797 185.24669922 -11.63142578 185.65404297 -11.09619141 186.07373047 C-11.09619141 186.73373047 -11.09619141 187.39373047 -11.09619141 188.07373047 C-9.44619141 188.40373047 -7.79619141 188.73373047 -6.09619141 189.07373047 C-6.09619141 189.73373047 -6.09619141 190.39373047 -6.09619141 191.07373047 C14.47860822 192.69890925 14.47860822 192.69890925 32.93896484 185.39013672 C34.49646363 183.67799266 35.72963991 182.0641428 36.90380859 180.07373047 C37.27376953 179.47044922 37.64373047 178.86716797 38.02490234 178.24560547 C40.37421814 172.44018511 39.89509874 164.36994967 37.46630859 158.63623047 C31.55656651 148.97491151 17.83070536 145.26998078 7.90380859 141.07373047 C6.50582031 140.46851563 6.50582031 140.46851563 5.07958984 139.85107422 C0.21851542 137.81255914 -4.74486133 136.23340255 -9.78369141 134.69873047 C-22.82589628 130.71207721 -35.00976603 125.3683557 -47.09619141 119.07373047 C-47.09619141 118.41373047 -47.09619141 117.75373047 -47.09619141 117.07373047 C-48.08619141 117.07373047 -49.07619141 117.07373047 -50.09619141 117.07373047 C-50.09619141 116.41373047 -50.09619141 115.75373047 -50.09619141 115.07373047 C-51.08619141 115.07373047 -52.07619141 115.07373047 -53.09619141 115.07373047 C-54.97119141 113.38623047 -54.97119141 113.38623047 -57.09619141 111.07373047 C-57.85931641 110.33123047 -58.62244141 109.58873047 -59.40869141 108.82373047 C-71.39138506 96.56236952 -76.95042494 84.34107428 -77.28369141 66.94873047 C-77.04047368 49.23437293 -71.5935069 35.87539459 -59.09619141 23.07373047 C-42.35160695 8.08941771 -22.29487826 0.78418975 0 0 Z " fill="#FAFAFB" transform="translate(1202.09619140625,962.92626953125)"/>
<path d="M0 0 C3.17172686 3.62519192 4.96430722 6.87905599 6.6015625 11.3984375 C6.84556793 12.06974701 7.08957336 12.74105652 7.3409729 13.43270874 C11.3992568 24.73123091 15.19180347 36.12659938 18.99755859 47.51220703 C20.15274456 50.96665935 21.31909481 54.41723802 22.48784447 57.86712074 C23.39466658 60.55032706 24.29342032 63.23618538 25.189991 65.92283249 C25.8224762 67.81136844 26.4634401 69.69705806 27.10458374 71.58267212 C27.67615707 73.30639542 27.67615707 73.30639542 28.25927734 75.06494141 C28.59647797 76.06925201 28.93367859 77.07356262 29.28109741 78.10830688 C30 81 30 81 30 87 C10.2 87 -9.6 87 -30 87 C-27.03 77.595 -27.03 77.595 -24 68 C-23.319375 65.7725 -22.63875 63.545 -21.9375 61.25 C-20.33056313 55.99578316 -18.60602634 50.78510693 -16.85302734 45.57836914 C-15.52914814 41.63154795 -14.27016645 37.67129597 -13.0625 33.6875 C-5.33116941 8.46715141 -5.33116941 8.46715141 0 0 Z " fill="#04040C" transform="translate(754,1025)"/>
<path d="M0 0 C0.33 0 0.66 0 1 0 C1.25687776 13.68144723 0.4970522 27.07331896 -0.8125 40.6875 C-0.99601553 42.66716076 -1.17870277 44.64689847 -1.3605957 46.62670898 C-2.11519271 54.80023864 -2.89967463 62.97088101 -3.68701172 71.14131165 C-3.95804856 73.95470771 -4.22806032 76.76820106 -4.49743652 79.58175659 C-4.68493979 81.53581884 -4.87419607 83.48971262 -5.06347656 85.44360352 C-5.83640925 93.62021945 -6.41621084 101.78246367 -6.62182617 109.99438477 C-6.76126198 114.34233583 -7.40814674 117.94684751 -9 122 C-9.33 122 -9.66 122 -10 122 C-10.08662772 113.40635497 -9.89065056 104.88676674 -9.3125 96.3125 C-9.23 95.075 -9.1475 93.8375 -9.0625 92.5625 C-7.78765383 74.33842873 -5.7817144 56.17075705 -3.90592957 38.00114441 C-3.09338409 30.07014875 -2.35761578 22.13349341 -1.67175293 14.19055176 C-1.25370058 9.43102918 -0.72679797 4.72258591 0 0 Z " fill="#131006" transform="translate(1704,865)"/>
<path d="M0 0 C0.99 0.33 1.98 0.66 3 1 C2.67 17.83 2.34 34.66 2 52 C17.51 52 33.02 52 49 52 C49 52.66 49 53.32 49 54 C45.07585206 54.17227967 41.15138065 54.33213641 37.22631836 54.48217773 C35.26196037 54.55956652 33.29795775 54.64581991 31.33398438 54.73242188 C20.72275199 55.12935077 10.72686334 54.56457175 0 54 C0 36.18 0 18.36 0 0 Z " fill="#090802" transform="translate(1569,1375)"/>
<path d="M0 0 C11.20619721 0.20752217 20.77853493 5.78079834 29 13 C30.21816406 14.03833984 30.21816406 14.03833984 31.4609375 15.09765625 C40.11998118 22.65100666 49.44404431 31.20436588 54 42 C53.67 42.99 53.34 43.98 53 45 C50.85495781 42.18704048 48.85229603 39.3075115 46.875 36.375 C37.16843885 22.59208677 24.9521372 10.99177836 9 5 C8.14148437 4.64292969 7.28296875 4.28585937 6.3984375 3.91796875 C3.62285363 2.85565245 0.93660498 2.40975883 -2 2 C-1.34 1.34 -0.68 0.68 0 0 Z " fill="#151206" transform="translate(1639,733)"/>
<path d="M0 0 C23 0 23 0 30 1 C30 1.33 30 1.66 30 2 C20.76 2 11.52 2 2 2 C2 18.5 2 35 2 52 C2.66 52 3.32 52 4 52 C4 52.66 4 53.32 4 54 C2.68 54 1.36 54 0 54 C0 36.18 0 18.36 0 0 Z " fill="#010100" transform="translate(1569,729)"/>
<path d="M0 0 C0.66 0 1.32 0 2 0 C4.09839564 18.96140642 4.09839564 18.96140642 -1.46875 27.1640625 C-2.90192892 28.9274346 -4.26118398 30.5372634 -6 32 C-6.66 32 -7.32 32 -8 32 C-6.48030274 24.92529287 -4.72008263 17.93380613 -2.875 10.9375 C-2.59785156 9.88111328 -2.32070312 8.82472656 -2.03515625 7.73632812 C-1.35826901 5.15715434 -0.67985409 2.57839302 0 0 Z " fill="#081817" transform="translate(1702,1344)"/>
<path d="M0 0 C0 3 0 3 -2.30859375 5.3828125 C-3.34532733 6.30394092 -4.38876818 7.21755544 -5.4375 8.125 C-6.55316861 9.12378904 -7.66774389 10.12380065 -8.78125 11.125 C-9.33296875 11.61742187 -9.8846875 12.10984375 -10.453125 12.6171875 C-20.19112501 21.32236933 -28.12176822 31.52309761 -35.55126953 42.23706055 C-36.26839111 43.10971558 -36.26839111 43.10971558 -37 44 C-37.66 44 -38.32 44 -39 44 C-37.42872005 38.84580142 -34.20437506 35.24968547 -30.8125 31.1875 C-29.92522217 30.11302612 -29.92522217 30.11302612 -29.02001953 29.0168457 C-27.353854 27.0051102 -25.67866898 25.00130411 -24 23 C-23.33097656 22.195625 -22.66195313 21.39125 -21.97265625 20.5625 C-15.45574148 12.91428707 -8.53837006 5.36625901 0 0 Z " fill="#070603" transform="translate(1683,1088)"/>
<path d="M0 0 C0 0.66 0 1.32 0 2 C-16.17 1.34 -32.34 0.68 -49 0 C-49 -0.33 -49 -0.66 -49 -1 C-8.22222222 -4.11111111 -8.22222222 -4.11111111 0 0 Z " fill="#181407" transform="translate(1632,732)"/>
<path d="M0 0 C0.66 0.33 1.32 0.66 2 1 C-1.57691253 4.87890327 -4.97381253 7.37034965 -9.6875 9.875 C-10.82574219 10.49117187 -11.96398438 11.10734375 -13.13671875 11.7421875 C-14.08160156 12.15726563 -15.02648438 12.57234375 -16 13 C-16.66 12.67 -17.32 12.34 -18 12 C-13.8846356 8.31036296 -9.29112341 5.90848936 -4.42578125 3.3671875 C-1.91748997 2.09670355 -1.91748997 2.09670355 0 0 Z " fill="#080702" transform="translate(1667,1407)"/>
<path d="M0 0 C0 3 0 3 -2.703125 5.7421875 C-3.87814039 6.79463892 -5.06080748 7.83859453 -6.25 8.875 C-10.21340184 12.36802008 -13.82378865 15.73884518 -17 20 C-17.66 19.67 -18.32 19.34 -19 19 C-6.51480638 5.18223235 -6.51480638 5.18223235 0 0 Z " fill="#191507" transform="translate(1687,1389)"/>
<path d="M0 0 C0.66 0 1.32 0 2 0 C1.67 6.27 1.34 12.54 1 19 C-1.15349306 14.69301387 -1.24143165 12.5437767 -1.1875 7.8125 C-1.18105469 6.56082031 -1.17460938 5.30914063 -1.16796875 4.01953125 C-1 1 -1 1 0 0 Z " fill="#1D1808" transform="translate(1641,901)"/>
<path d="M0 0 C0 0.66 0 1.32 0 2 C-6.93 1.67 -13.86 1.34 -21 1 C-21 0.67 -21 0.34 -21 0 C-4.30769231 -2.15384615 -4.30769231 -2.15384615 0 0 Z " fill="#221C09" transform="translate(1632,732)"/>
<path d="M0 0 C0 0.99 0 1.98 0 3 C-0.66 3 -1.32 3 -2 3 C-2.04125 3.5775 -2.0825 4.155 -2.125 4.75 C-3.44065958 8.13312465 -5.96552364 9.19222685 -9 11 C-7.2034488 6.75360625 -4.18376817 2.09188408 0 0 Z " fill="#151106" transform="translate(1713,1119)"/>
<path d="M0 0 C5.94 0.99 5.94 0.99 12 2 C11.34 2.66 10.68 3.32 10 4 C7.6171875 3.9765625 7.6171875 3.9765625 4.875 3.625 C3.96492188 3.51414062 3.05484375 3.40328125 2.1171875 3.2890625 C1.41851563 3.19367187 0.71984375 3.09828125 0 3 C0 2.01 0 1.02 0 0 Z " fill="#1E1908" transform="translate(1588,783)"/>
<path d="M0 0 C0 3 0 3 -1.96875 5.04296875 C-2.8040625 5.75066406 -3.639375 6.45835938 -4.5 7.1875 C-5.3353125 7.90292969 -6.170625 8.61835937 -7.03125 9.35546875 C-7.6809375 9.89816406 -8.330625 10.44085937 -9 11 C-9.66 10.67 -10.32 10.34 -11 10 C-9.54474941 8.51780033 -8.085701 7.03932861 -6.625 5.5625 C-5.81289062 4.73878906 -5.00078125 3.91507813 -4.1640625 3.06640625 C-2 1 -2 1 0 0 Z " fill="#020201" transform="translate(1683,1088)"/>
<path d="M0 0 C0.66 0.33 1.32 0.66 2 1 C-0.97 3.97 -3.94 6.94 -7 10 C-7 7 -7 7 -4.625 4.4375 C-3.75875 3.633125 -2.8925 2.82875 -2 2 C-1.34 1.34 -0.68 0.68 0 0 Z " fill="#2C2613" transform="translate(534,798)"/>
<path d="M0 0 C3.63 0.33 7.26 0.66 11 1 C7.91111478 3.05925681 7.29064073 3.2390374 3.8125 3.125 C1.9253125 3.063125 1.9253125 3.063125 0 3 C0 2.01 0 1.02 0 0 Z " fill="#201A09" transform="translate(1573,781)"/>
<path d="M0 0 C0.99 0.495 0.99 0.495 2 1 C3.1577506 4.47325181 3.06866652 7.36067448 3 11 C0.60236815 8.60236815 0.65719414 7.66726502 0.375 4.375 C0.30023437 3.55773437 0.22546875 2.74046875 0.1484375 1.8984375 C0.09945313 1.27195312 0.05046875 0.64546875 0 0 Z " fill="#080702" transform="translate(1639,996)"/>
<path d="M0 0 C0 3.52032428 -0.70351351 4.4385343 -3 7 C-3.66 7 -4.32 7 -5 7 C-3.70700306 4.11562221 -2.34058637 2.12780579 0 0 Z " fill="#010101" transform="translate(1692,1382)"/>
<path d="M0 0 C0 0.66 0 1.32 0 2 C-2.3125 3.6875 -2.3125 3.6875 -5 5 C-5.99 4.67 -6.98 4.34 -8 4 C-2.25 0 -2.25 0 0 0 Z " fill="#060502" transform="translate(1695,1082)"/>
<path d="M0 0 C0.33 0.66 0.66 1.32 1 2 C0.06553465 4.03144641 -0.93224776 6.03533587 -2 8 C-2.66 8 -3.32 8 -4 8 C-2.25 2.25 -2.25 2.25 0 0 Z " fill="#010101" transform="translate(1643,1134)"/>
<path d="M0 0 C0.33 0.66 0.66 1.32 1 2 C0.06694014 4.71435596 -0.62673377 5.78043163 -3.125 7.25 C-3.74375 7.4975 -4.3625 7.745 -5 8 C-3.8141763 4.62496331 -2.72426311 2.35277269 0 0 Z " fill="#171307" transform="translate(1703,1133)"/>
</svg>
